<svg version="1.1" xmlns="http://www.w3.org/2000/svg" xmlns:xlink="http://www.w3.org/1999/xlink" width="1046" height="756" viewBox="0,0,1046,756"><g transform="translate(338.5,122)"><g data-paper-data="{&quot;isPaintingLayer&quot;:true}" fill-rule="nonzero" stroke="#000000" stroke-width="2" stroke-linecap="butt" stroke-linejoin="miter" stroke-miterlimit="10" stroke-dasharray="" stroke-dashoffset="0" style="mix-blend-mode: normal"><path d="M-227.5,625v-746h934v746z" fill="#00c6ff"/><path d="M370.5,148c0,44.73506 -89.31919,81 -199.5,81c-110.18081,0 -199.5,-36.26494 -199.5,-81c0,-44.73506 89.31919,-81 199.5,-81c110.18081,0 199.5,36.26494 199.5,81z" fill="#0aff00"/><path d="M575.5,194c0,52.46705 -64.69486,95 -144.5,95c-79.80514,0 -144.5,-42.53295 -144.5,-95c0,-52.46705 64.69486,-95 144.5,-95c79.80514,0 144.5,42.53295 144.5,95z" fill="#0aff00"/><path d="M341.04459,171.39131l15.95293,-106.81528l93.95788,14.03267l-15.95293,106.81528z" fill="#f600ff"/><path d="M83.5,195v-116h75v116z" fill="#9a9a9a"/><path d="M594.5,374c0,143.04175 -208.6353,259 -466,259c-257.36469,0 -466,-115.95825 -466,-259c0,-143.04175 208.63531,-259 466,-259c257.3647,0 466,115.95825 466,259z" fill="#0aff00"/><path d="M83.5,108l-17,-55h106l-15,55z" fill="#9a9a9a"/><path d="M61.5,67v-41h37v41z" fill="#9a9a9a"/><path d="M107.5,67v-41h30v41z" fill="#9a9a9a"/><path d="M146.5,67v-41.83333h37v41.83333z" fill="#9a9a9a"/></g></g></svg>