<svg version="1.1" xmlns="http://www.w3.org/2000/svg" xmlns:xlink="http://www.w3.org/1999/xlink" width="46.01667" height="72.93334" viewBox="0,0,46.01667,72.93334"><g transform="translate(-84.48333,-168.06666)"><g data-paper-data="{&quot;isPaintingLayer&quot;:true}" fill-rule="nonzero" stroke-linecap="butt" stroke-linejoin="miter" stroke-miterlimit="10" stroke-dasharray="" stroke-dashoffset="0" style="mix-blend-mode: normal"><path d="M85.5,240v-44h44v44z" fill="#ff0000" stroke="#000000" stroke-width="2"/><path d="M85.48334,195.4v-26.33334h43.95v26.33334z" fill="#00e6ff" stroke="#000000" stroke-width="2"/><path d="M115.48604,170.7835c-1.05334,0.15352 -2.16439,0.31163 -3.14825,0.66284c-1.25787,0.44903 -2.06487,1.38297 -2.57037,2.53439c0.79136,1.9769 0.3435,4.33045 -0.70027,6.41087c0.01065,0.13728 0.02203,0.27105 0.03387,0.40083c0.93723,5.80315 10.13793,6.04202 13.4548,2.34317c3.37417,-4.83392 -0.4608,-11.04 -5.81272,-11.86337l-0.74733,-0.1487c0,0 -0.33779,-0.06756 -0.50973,-0.34003zM116.64362,169.72379l0.32757,0.06588c6.50422,1.00065 10.79628,8.52548 6.75871,14.27949c-3.96307,4.39076 -13.60651,4.12746 -15.78767,-1.83874c-0.79249,1.0836 -1.72117,2.00399 -2.65642,2.63024c-5.61985,3.99241 -15.60548,-0.68992 -16.81849,-7.1195c-0.00489,-1.37553 -0.10293,-2.81547 0.49802,-4.1033c1.93865,-4.15452 7.61708,-3.99222 11.43018,-4.46494c0.1893,-0.39197 0.67592,-0.39197 0.67592,-0.39197l0.41467,0.00221c0.65954,0.0525 1.31692,0.16001 1.95894,0.31989c1.76324,0.70272 4.098,1.84961 5.43946,3.42506c0.65564,-1.08719 1.59549,-1.96978 2.92057,-2.48398c1.23199,-0.47808 2.71285,-0.62627 4.00946,-0.82589c0,0 0.65695,-0.10107 0.82909,0.50555zM101.37459,170.27901c-0.1801,0.3017 -0.56118,0.35251 -0.56118,0.35251c-5.04529,0.67169 -10.82482,0.49697 -10.85215,6.97494c0.90691,5.3087 9.97156,9.39188 14.46722,6.02336c1.09008,-0.72321 2.27329,-2.0394 3.1179,-3.54701c-0.10976,-1.91401 -0.02212,-4.10136 0.61891,-5.98482c-0.00668,-0.01144 -0.01343,-0.02286 -0.02025,-0.03425c-0.9878,-1.65085 -3.45348,-2.84714 -5.16151,-3.53344c-0.52645,-0.13229 -1.06761,-0.21113 -1.60894,-0.25128z" fill="#000000" stroke="none" stroke-width="0.5"/><path d="M115.99259,171.07363l0.75266,0.14864c5.35192,0.82337 9.2236,7.11087 5.84943,11.94479c-3.31687,3.69884 -12.60356,3.44521 -13.54078,-2.35793c-0.01184,-0.12978 -0.02401,-0.26595 -0.03466,-0.40323c1.04378,-2.08042 1.49724,-4.47492 0.70588,-6.45182c0.5055,-1.15142 1.32879,-2.1014 2.58666,-2.55043c0.98386,-0.35122 2.1145,-0.51621 3.16784,-0.66973c0.17194,0.27247 0.51298,0.33971 0.51298,0.33971z" data-paper-data="{&quot;noHover&quot;:false,&quot;origItem&quot;:[&quot;Path&quot;,{&quot;applyMatrix&quot;:true,&quot;segments&quot;:[[[115.48604,170.7835],[0.17194,0.27247],[-1.05334,0.15352]],[[112.33779,171.44635],[0.98386,-0.35122],[-1.25787,0.44903]],[[109.76742,173.98073],[0.5055,-1.15142],[0.79136,1.9769]],[[109.06714,180.3916],[1.04378,-2.08042],[0.01065,0.13728]],[[109.10102,180.79243],[-0.01184,-0.12978],[0.93723,5.80315]],[[122.55582,183.1356],[-3.31687,3.69884],[3.37417,-4.83392]],[[116.7431,171.27223],[5.35192,0.82337],[0,0]],[115.99577,171.12353]],&quot;closed&quot;:true}]}" fill="#ffffff" stroke="none" stroke-width="0.5"/><path d="M103.00787,170.48661c1.70803,0.68631 4.19602,1.90827 5.18382,3.55912c0.00682,0.01139 0.01364,0.023 0.02032,0.03444c-0.64103,1.88347 -0.72745,4.10284 -0.61769,6.01685c-0.84461,1.50761 -2.04262,2.84703 -3.1327,3.57024c-4.49566,3.36852 -13.64345,-0.75189 -14.55036,-6.06059c0.02733,-6.47797 5.86909,-6.35194 10.91439,-7.02363c0,0 0.38396,-0.04999 0.56406,-0.35169c0.54134,0.04015 1.09172,0.12298 1.61816,0.25526z" data-paper-data="{&quot;noHover&quot;:false,&quot;origItem&quot;:[&quot;Path&quot;,{&quot;applyMatrix&quot;:true,&quot;segments&quot;:[[[101.37459,170.27901],[0.54134,0.04015],[-0.1801,0.3017]],[[100.81341,170.63152],[0,0],[-5.04529,0.67169]],[[89.96126,177.60646],[0.02733,-6.47797],[0.90691,5.3087]],[[104.42848,183.62982],[-4.49566,3.36852],[1.09008,-0.72321]],[[107.54638,180.0828],[-0.84461,1.50761],[-0.10976,-1.91401]],[[108.16529,174.09798],[-0.64103,1.88347],[-0.00668,-0.01144]],[[108.14504,174.06373],[0.00682,0.01139],[-0.9878,-1.65085]],[[102.98353,170.53029],[1.70803,0.68631],[-0.52645,-0.13229]]],&quot;closed&quot;:true}]}" fill="#ffffff" stroke="none" stroke-width="0.5"/><path d="M115.39286,177.95952c0,-0.41421 0.33579,-0.75 0.75,-0.75c0.41421,0 0.75,0.33579 0.75,0.75c0,0.41421 -0.33579,0.75 -0.75,0.75c-0.41421,0 -0.75,-0.33579 -0.75,-0.75z" fill="#000000" stroke="none" stroke-width="0.5"/><path d="M99.60714,177.03095c0,-0.41421 0.33579,-0.75 0.75,-0.75c0.41421,0 0.75,0.33579 0.75,0.75c0,0.41421 -0.33579,0.75 -0.75,0.75c-0.41421,0 -0.75,-0.33579 -0.75,-0.75z" fill="#000000" stroke="none" stroke-width="0.5"/><path d="M116.02857,188.50952c0.45,0.6 -0.15,1.05 -0.15,1.05l-0.47941,0.31913c-1.10047,0.40017 -2.16454,0.81737 -3.31915,1.02971c-4.1389,0.9461 -8.11667,1.331 -12.17723,-0.02401c-1.68212,-0.56133 -3.22666,-1.14107 -3.95629,-2.86057c0,0 -0.27854,-0.69636 0.41781,-0.9749c0.69636,-0.27854 0.9749,0.41781 0.9749,0.41781c0.453,1.24906 1.86895,1.60543 3.04371,1.99657c3.80386,1.26651 7.51147,0.88124 11.3942,-0.02401c1.08245,-0.19435 2.0782,-0.5953 3.10942,-0.97029l0.09202,-0.10944c0,0 0.6,-0.45 1.05,0.15z" fill="#000000" stroke="none" stroke-width="0.5"/></g></g></svg>